<svg xmlns="http://www.w3.org/2000/svg" fill-rule="evenodd" stroke-linejoin="round" stroke-miterlimit="1.414" clip-rule="evenodd" viewBox="0 0 291 301">
    <g transform="translate(-121 -106)">
        <path fill="#bdc3c7" fill-rule="nonzero" d="M398 372.438c0 5.833-4.729 10.562-10.562 10.562H131.562c-5.833 0-10.562-4.729-10.562-10.562V116.562c0-5.833 4.729-10.562 10.562-10.562h255.877c5.833 0 10.562 4.729 10.562 10.562v255.876H398z"/>
        <path fill="#94a5a6" fill-rule="nonzero" d="M142.623 116.062c-5.809 0-10.562 4.753-10.562 10.562v234.463c0 5.809 4.753 10.562 10.562 10.562h234.463c5.809 0 10.562-4.753 10.562-10.562V126.623c0-5.809-4.753-10.562-10.562-10.562H142.623v.001zm239.744 239.744c0 5.809-4.753 10.562-10.562 10.562H147.903c-5.809 0-10.562-4.753-10.562-10.562V131.903c0-5.809 4.753-10.562 10.562-10.562h223.902c5.809 0 10.562 4.753 10.562 10.562v223.903z"/>
        <path fill="#ecf0f1" fill-rule="nonzero" d="M412 193.439c0 5.832-4.729 10.561-10.562 10.561h-25.877c-5.833 0-10.562-4.729-10.562-10.561V170.56c0-5.832 4.729-10.561 10.562-10.561h25.877c5.833 0 10.562 4.729 10.562 10.561v22.879zm0 123.999c0 5.833-4.729 10.562-10.562 10.562h-25.877c-5.833 0-10.562-4.729-10.562-10.562v-22.877c0-5.833 4.729-10.562 10.562-10.562h25.877c5.833 0 10.562 4.729 10.562 10.562v22.877z"/>
        <path fill="#32485d" d="M139 383h52v24h-52z"/>
        <path fill="#2a3e4e" d="M139 384h52v10h-52z"/>
        <path fill="#32485d" d="M329 383h52v24h-52z"/>
        <path fill="#2a3e4e" d="M329 384h52v10h-52z"/>
        <g fill="#bdc3c7">
            <circle cx="376.653" cy="171.458" r="5.017"/>
            <circle cx="376.653" cy="192.581" r="5.017"/>
            <circle cx="400.347" cy="171.458" r="5.017"/>
            <circle cx="400.347" cy="192.581" r="5.017"/>
        </g>
        <g fill="#bdc3c7">
            <circle cx="376.653" cy="295.458" r="5.017"/>
            <circle cx="376.653" cy="316.581" r="5.017"/>
            <circle cx="400.347" cy="295.458" r="5.017"/>
            <circle cx="400.347" cy="316.581" r="5.017"/>
        </g>
        <circle cx="259.854" cy="248.871" r="66.272" fill="#94a5a6"/>
        <circle cx="259.854" cy="248.871" r="58.88" fill="#bdc3c7"/>
        <path fill="#ecf0f1" fill-rule="nonzero" d="M270 206c0 5.523-4.477 10-10 10s-10-4.477-10-10v-38c0-5.523 4.477-10 10-10s10 4.477 10 10v38zm0 113c0 5.523-4.477 10-10 10s-10-4.477-10-10v-38c0-5.523 4.477-10 10-10s10 4.477 10 10v38z"/>
        <path fill="#ecf0f1" fill-rule="nonzero" d="M269 205.834c0 5.809-4.482 10.561-10 10.561s-10-4.752-10-10.561v-36.966c0-5.809 4.482-10.562 10-10.562s10 4.753 10 10.562v36.966zm-20 76.041c0-5.809 4.482-10.561 10-10.561s10 4.752 10 10.561v36.965c0 5.81-4.482 10.562-10 10.562s-10-4.753-10-10.562v-36.965zM297.875 255c-5.809 0-10.561-4.482-10.561-10 0-5.519 4.752-10 10.561-10h36.965c5.81 0 10.562 4.481 10.562 10 0 5.518-4.753 10-10.562 10h-36.965zm-76.041-20c5.809 0 10.561 4.481 10.561 10 0 5.518-4.752 10-10.561 10h-36.966c-5.809 0-10.562-4.482-10.562-10 0-5.519 4.753-10 10.562-10h36.966z"/>
        <path fill="#94a5a6" fill-rule="nonzero" d="M259 216.395c5.518 0 10-4.752 10-10.561v-12.871c-3-.554-6.403-.859-9.735-.859-3.518 0-7.265.338-10.265.953v12.777c0 5.809 4.482 10.561 10 10.561zm0 54.919c-5.518 0-10 4.752-10 10.561v22.811c3 .615 6.747.953 10.265.953 3.332 0 6.735-.305 9.735-.859v-22.904c0-5.81-4.482-10.562-10-10.562zM314.731 235h-16.856c-5.809 0-10.561 4.481-10.561 10 0 5.518 4.752 10 10.561 10h18.473c.178-2 .274-3.641.274-5.512 0-5.018-.662-10.488-1.891-14.488zm-82.336 10c0-5.519-4.752-10-10.561-10h-16.856c-1.229 4-1.891 9.47-1.891 14.488 0 1.871.097 3.512.274 5.512h18.473c5.809 0 10.561-4.482 10.561-10z"/>
        <circle cx="259.854" cy="248.871" r="51.487" fill="#ecf0f1"/>
        <circle cx="259.854" cy="248.871" r="43.565" fill="#bdc3c7"/>
        <path fill="#94a5a6" fill-rule="nonzero" d="M259.854 280.291c-17.325 0-31.42-14.095-31.42-31.42 0-17.325 14.095-31.42 31.42-31.42 17.325 0 31.42 14.095 31.42 31.42 0 17.325-14.094 31.42-31.42 31.42z"/>
        <circle cx="259.854" cy="248.871" r="26.14" fill="#ecf0f1"/>
    </g>
</svg>
